# xmcd CD database file
#
# Track frame offsets:
#	150
#	11189
#	23768
#	38704
#	52086
#	72742
#	76114
#	92008
#	111928
#	123798
#	133192
#	151963
#	184924
#
# Disc length: 2661 seconds
#
# Revision: 1
# Processed by: cddbd v1.5.2PL0 Copyright (c) Steve Scherf et al.
# Submitted via: CDex 1.51
#
DISCID=ad0a630d
DTITLE=Misztral - Megkopott harangszo
DYEAR=2006
DGENRE=Poetry
TTITLE0=Misztral - Varju-koszoru
TTITLE1=Misztral - Pesten esik a ho
TTITLE2=Misztral - Hajnali dobajok
TTITLE3=Misztral - Nem vagytok halva ti, Hosok
TTITLE4=Misztral - Egy orosz katonarol
TTITLE5=Misztral - Mecsesszemu remeny
TTITLE6=Misztral - Magyar mesehosok
TTITLE7=Misztral - Historia a vitez Hunyadi Janos vajdarol
TTITLE8=Misztral - Megkopott harangszo
TTITLE9=Misztral - Karacsony, fekete gloria
TTITLE10=Misztral - Velunk vagy ellenunk
TTITLE11=Misztral - Halottak napi vers
TTITLE12=Misztral - Jovel, legy velunk, Uristen 
EXTD=YEAR: 2006
EXTT0=
EXTT1=
EXTT2=
EXTT3=
EXTT4=
EXTT5=
EXTT6=
EXTT7=
EXTT8=
EXTT9=
EXTT10=
EXTT11=
EXTT12=
PLAYORDER=
